<svg version="1.0" xmlns="http://www.w3.org/2000/svg" viewBox="0 0 185 30">
<path fill="#0C1728" d="M5.1,15.6c0,11.6,17.2,11.6,17.2,0C22.3,4,5.1,4,5.1,15.6z M9.5,15.6c0-6,8.4-6,8.4,0
				C17.9,21.7,9.5,21.7,9.5,15.6z M30.5,7.2c-1.5,0-2.9,0-4.3,0V24c3.4,0,7,0,10.4,0c0-1.4,0-2.4,0-3.9h-6.1
				C30.5,13,30.5,15.9,30.5,7.2z M44.7,12.8h-0.2l-3-5.6h-4.6v0.6l5.6,9.1V24h4.2v-7.1l5.7-9.1V7.2h-4.7L44.7,12.8z M63.5,14.4
				l-6.6-7.3h-1.6V24c1.5,0,2.9,0,4.4,0v-7.5l3.6,3.7h0.5l3.6-3.7V24c1.5,0,2.9,0,4.4,0V7.2h-1.5L63.5,14.4z M84,7.2
				c-2.5,0-5,0-7.4,0c0,5.6,0,11.2,0,16.8c1.4,0,2.9,0,4.3,0v-4.3H84C92,19.7,92,7.2,84,7.2z M84,15.8h-3.1c0-1.4,0-3.4,0-4.8
				c1,0,2.1,0,3.1,0C86.5,11.1,86.3,15.8,84,15.8z M99.4,11h4.1v13c1.4,0,2.8,0,4.2,0V11h4.1c0-1.3,0-2.6,0-3.8H99.4
				C99.4,8.5,99.4,9.7,99.4,11z M122.5,7.2c-2.4,0-4.9,0-7.4,0c0,5.6,0,11.2,0,16.8c1.4,0,2.9,0,4.3,0v-4.9h2.2l2.9,4.9h4.8v-0.6
				L126,18C130.3,15.2,129.1,7.2,122.5,7.2z M122.5,15.2h-3.1c0-1.3,0-2.8,0-4.2c1,0,2.1,0,3.1,0C124.9,11.1,124.8,15.2,122.5,15.2z
				 M138.7,7l-7.6,16.4V24h4.2l1-2.1h6.6l1,2.1h4.2v-0.6L140.6,7H138.7z M137.8,18.2l1.9-4.4l1.9,4.4H137.8z M157.3,7.2H151V24h6.3
				C168.2,24,168.2,7.2,157.3,7.2z M157.3,20.1h-2v-9h2C162.6,11.1,162.6,20.1,157.3,20.1z M173.6,20.2c0-1,0-2,0-3h5.7
				c0-1.3,0-2.5,0-3.8h-5.7V11c2.5,0,3.7,0,6.2,0c0-1.3,0-2.6,0-3.8c-3.9,0-6.6,0-10.5,0c0,5.6,0,11.2,0,16.8c3.9,0,6.8,0,10.7,0
				c0-1.3,0-2.6,0-3.8C177.5,20.2,176.1,20.2,173.6,20.2z"/>
<polygon fill-rule="evenodd" clip-rule="evenodd" fill="#06B237" points="13.5,17.2 7,25.2 20,25.2 			"/>
<polygon fill-rule="evenodd" clip-rule="evenodd" fill="#B21717" points="57.3,4 63.3,10 69.3,4 			"/>
</svg>
